# xmcd
#
# Track frame offsets: 
#        150
#        9937
#        23037
#        36035
#        49692
#        63347
#        77255
#        88517
#        104902
#        118802
#        131490
#        143842
#        154920
#        166875
#        181227
#        192387
#        204287
#        215342
#        229150
#        243062
#
# Disc length: 3517 seconds
#
# Revision: 1
# Processed by: cddbd v1.5.2PL0 Copyright (c) Steve Scherf et al.
# Submitted via: ExactAudioCopyFreeDBPlugin 1.0
#
DISCID=010dbb14
DTITLE=Colette a Fernand - sangen hir beschte Lidder
DYEAR=1900
DGENRE=Country
TTITLE0=De Jangeli firt den Houwald erop
TTITLE1=Ech drenke gier mei Pättchen
TTITLE2=Neen déi Schnöss
TTITLE3=De Breedewee an d'Sichegaass
TTITLE4=De läschten Tram
TTITLE5=Mir sin um Dill
TTITLE6=d'Footballslidd
TTITLE7=D'Hechtercher aus der Stâdt
TTITLE8=Hei kann ech net bleiwen
TTITLE9=O Marjännchen
TTITLE10=Uewenaus am Eisleck
TTITLE11=Déi Fräschen
TTITLE12=Drénkt Miselerwengchen
TTITLE13=All meng Kannerzeit
TTITLE14=Rousen vu Lëtzebuerg
TTITLE15=Komm meng Deifchen
TTITLE16=d'Lidd vun der Intchen
TTITLE17=Bei ons am Diefchen
TTITLE18=De Schmitchen Schleicher
TTITLE19=Am klenge Bistro
EXTD=
EXTT0=
EXTT1=
EXTT2=
EXTT3=
EXTT4=
EXTT5=
EXTT6=
EXTT7=
EXTT8=
EXTT9=
EXTT10=
EXTT11=
EXTT12=
EXTT13=
EXTT14=
EXTT15=
EXTT16=
EXTT17=
EXTT18=
EXTT19=
PLAYORDER=
